<mxfile host="app.diagrams.net" agent="Mozilla/5.0 (Macintosh; Intel Mac OS X 10.15; rv:135.0) Gecko/20100101 Firefox/135.0" version="26.0.14">
  <diagram name="Страница — 1" id="LqXRCkFQHdOiTWKArMwH">
    <mxGraphModel dx="2714" dy="1486" grid="1" gridSize="10" guides="1" tooltips="1" connect="1" arrows="1" fold="1" page="1" pageScale="1" pageWidth="827" pageHeight="1169" math="0" shadow="0">
      <root>
        <mxCell id="0" />
        <mxCell id="1" parent="0" />
        <mxCell id="AYD22NFn91ioC5n_1gdL-1" value="asdasdasda" style="rounded=0;whiteSpace=wrap;html=1;" vertex="1" parent="1">
          <mxGeometry x="350" y="720" width="120" height="60" as="geometry" />
        </mxCell>
        <mxCell id="AYD22NFn91ioC5n_1gdL-2" value="ываываыаы" style="rounded=0;whiteSpace=wrap;html=1;" vertex="1" parent="1">
          <mxGeometry x="350" y="600" width="120" height="60" as="geometry" />
        </mxCell>
        <mxCell id="AYD22NFn91ioC5n_1gdL-3" style="edgeStyle=orthogonalEdgeStyle;rounded=0;orthogonalLoop=1;jettySize=auto;html=1;exitX=1;exitY=0.5;exitDx=0;exitDy=0;entryX=0.5;entryY=1;entryDx=0;entryDy=0;" edge="1" parent="1" source="AYD22NFn91ioC5n_1gdL-1" target="AYD22NFn91ioC5n_1gdL-1">
          <mxGeometry relative="1" as="geometry" />
        </mxCell>
        <mxCell id="AYD22NFn91ioC5n_1gdL-5" style="edgeStyle=orthogonalEdgeStyle;rounded=0;orthogonalLoop=1;jettySize=auto;html=1;exitX=0;exitY=0.5;exitDx=0;exitDy=0;entryX=1;entryY=0.5;entryDx=0;entryDy=0;" edge="1" parent="1" source="AYD22NFn91ioC5n_1gdL-4" target="AYD22NFn91ioC5n_1gdL-2">
          <mxGeometry relative="1" as="geometry" />
        </mxCell>
        <mxCell id="AYD22NFn91ioC5n_1gdL-4" value="фывфывф" style="rounded=0;whiteSpace=wrap;html=1;" vertex="1" parent="1">
          <mxGeometry x="560" y="630" width="120" height="60" as="geometry" />
        </mxCell>
      </root>
    </mxGraphModel>
  </diagram>
</mxfile>
